<mxfile host="Electron" modified="2024-05-30T12:45:10.375Z" agent="Mozilla/5.0 (Windows NT 10.0; Win64; x64) AppleWebKit/537.36 (KHTML, like Gecko) draw.io/21.7.5 Chrome/114.0.5735.289 Electron/25.8.1 Safari/537.36" etag="m3gaWP-Yj5eT6aDfR0wh" version="21.7.5" type="device">
  <diagram id="FGSRg0PT_kMmOV0JEFwy" name="Page-1">
    <mxGraphModel dx="1418" dy="868" grid="1" gridSize="10" guides="1" tooltips="1" connect="1" arrows="1" fold="1" page="1" pageScale="1" pageWidth="850" pageHeight="1100" math="0" shadow="0">
      <root>
        <mxCell id="0" />
        <mxCell id="1" parent="0" />
        <mxCell id="UptkotUX1wnqp_mKW7ti-1" value="" style="ellipse;whiteSpace=wrap;html=1;aspect=fixed;fillColor=#000000;" parent="1" vertex="1">
          <mxGeometry x="380" y="20" width="40" height="40" as="geometry" />
        </mxCell>
        <mxCell id="UptkotUX1wnqp_mKW7ti-3" value="" style="ellipse;whiteSpace=wrap;html=1;aspect=fixed;fillColor=#FFFFFF;" parent="1" vertex="1">
          <mxGeometry x="380" y="1490" width="40" height="40" as="geometry" />
        </mxCell>
        <mxCell id="UptkotUX1wnqp_mKW7ti-4" value="" style="ellipse;whiteSpace=wrap;html=1;aspect=fixed;fillColor=#000000;" parent="1" vertex="1">
          <mxGeometry x="383" y="1493" width="34" height="34" as="geometry" />
        </mxCell>
        <mxCell id="eYJfA2EcvsJr-afmFX8r-5" value="" style="edgeStyle=orthogonalEdgeStyle;rounded=0;orthogonalLoop=1;jettySize=auto;html=1;" parent="1" source="UptkotUX1wnqp_mKW7ti-7" target="eYJfA2EcvsJr-afmFX8r-3" edge="1">
          <mxGeometry relative="1" as="geometry" />
        </mxCell>
        <mxCell id="eYJfA2EcvsJr-afmFX8r-9" value="" style="edgeStyle=orthogonalEdgeStyle;rounded=0;orthogonalLoop=1;jettySize=auto;html=1;entryX=0.5;entryY=0;entryDx=0;entryDy=0;" parent="1" source="UptkotUX1wnqp_mKW7ti-7" target="eYJfA2EcvsJr-afmFX8r-7" edge="1">
          <mxGeometry relative="1" as="geometry">
            <mxPoint x="210" y="185" as="targetPoint" />
          </mxGeometry>
        </mxCell>
        <mxCell id="eYJfA2EcvsJr-afmFX8r-14" value="User (default)" style="edgeLabel;html=1;align=center;verticalAlign=middle;resizable=0;points=[];" parent="eYJfA2EcvsJr-afmFX8r-9" vertex="1" connectable="0">
          <mxGeometry x="-0.8667" y="2" relative="1" as="geometry">
            <mxPoint x="-13" y="-17" as="offset" />
          </mxGeometry>
        </mxCell>
        <mxCell id="eYJfA2EcvsJr-afmFX8r-18" value="" style="edgeStyle=orthogonalEdgeStyle;rounded=0;orthogonalLoop=1;jettySize=auto;html=1;entryX=0.5;entryY=0;entryDx=0;entryDy=0;" parent="1" source="UptkotUX1wnqp_mKW7ti-7" target="eYJfA2EcvsJr-afmFX8r-16" edge="1">
          <mxGeometry relative="1" as="geometry">
            <mxPoint x="570" y="185" as="targetPoint" />
          </mxGeometry>
        </mxCell>
        <mxCell id="UptkotUX1wnqp_mKW7ti-7" value="Избиране на&lt;br&gt;типа на акаунта за регистрация" style="rhombus;whiteSpace=wrap;html=1;" parent="1" vertex="1">
          <mxGeometry x="325" y="110" width="150" height="150" as="geometry" />
        </mxCell>
        <mxCell id="eYJfA2EcvsJr-afmFX8r-62" value="" style="edgeStyle=orthogonalEdgeStyle;rounded=0;orthogonalLoop=1;jettySize=auto;html=1;" parent="1" source="UptkotUX1wnqp_mKW7ti-34" edge="1">
          <mxGeometry relative="1" as="geometry">
            <mxPoint x="400" y="1490" as="targetPoint" />
          </mxGeometry>
        </mxCell>
        <mxCell id="UptkotUX1wnqp_mKW7ti-34" value="Успешно влизане в акаунта" style="rounded=1;whiteSpace=wrap;html=1;" parent="1" vertex="1">
          <mxGeometry x="340" y="1350" width="120" height="80" as="geometry" />
        </mxCell>
        <mxCell id="UptkotUX1wnqp_mKW7ti-53" value="" style="endArrow=classic;html=1;rounded=0;exitX=0.5;exitY=1;exitDx=0;exitDy=0;" parent="1" edge="1">
          <mxGeometry x="1" y="292" width="50" height="50" relative="1" as="geometry">
            <mxPoint x="399.41000000000014" y="60.00000000000023" as="sourcePoint" />
            <mxPoint x="399.9099999999999" y="110.00000000000023" as="targetPoint" />
            <mxPoint x="-112" y="230" as="offset" />
          </mxGeometry>
        </mxCell>
        <mxCell id="eYJfA2EcvsJr-afmFX8r-6" value="" style="edgeStyle=orthogonalEdgeStyle;rounded=0;orthogonalLoop=1;jettySize=auto;html=1;" parent="1" source="eYJfA2EcvsJr-afmFX8r-3" target="eYJfA2EcvsJr-afmFX8r-4" edge="1">
          <mxGeometry relative="1" as="geometry" />
        </mxCell>
        <mxCell id="eYJfA2EcvsJr-afmFX8r-3" value="Попълване на полетата Username, Email, Names, UCN, Phone Number, Address, Password и Confirm Password" style="rounded=1;whiteSpace=wrap;html=1;" parent="1" vertex="1">
          <mxGeometry x="320" y="300" width="160" height="170" as="geometry" />
        </mxCell>
        <mxCell id="eYJfA2EcvsJr-afmFX8r-4" value="Съгласие с Terms of Service и Privacy Policy" style="rounded=1;whiteSpace=wrap;html=1;" parent="1" vertex="1">
          <mxGeometry x="340" y="550" width="120" height="80" as="geometry" />
        </mxCell>
        <mxCell id="eYJfA2EcvsJr-afmFX8r-23" value="" style="edgeStyle=orthogonalEdgeStyle;rounded=0;orthogonalLoop=1;jettySize=auto;html=1;" parent="1" source="eYJfA2EcvsJr-afmFX8r-7" edge="1">
          <mxGeometry relative="1" as="geometry">
            <mxPoint x="360" y="550" as="targetPoint" />
            <Array as="points">
              <mxPoint x="140" y="510" />
              <mxPoint x="360" y="510" />
              <mxPoint x="360" y="550" />
            </Array>
          </mxGeometry>
        </mxCell>
        <mxCell id="eYJfA2EcvsJr-afmFX8r-7" value="Попълване на полетата Username, Email, Names, UCN, Phone Number, Address, Password и Confirm Password" style="rounded=1;whiteSpace=wrap;html=1;" parent="1" vertex="1">
          <mxGeometry x="60" y="300" width="160" height="170" as="geometry" />
        </mxCell>
        <mxCell id="eYJfA2EcvsJr-afmFX8r-15" value="Doctor" style="edgeLabel;html=1;align=center;verticalAlign=middle;resizable=0;points=[];" parent="1" vertex="1" connectable="0">
          <mxGeometry x="420" y="270" as="geometry" />
        </mxCell>
        <mxCell id="eYJfA2EcvsJr-afmFX8r-16" value="Попълване на полетата Medical Center Name, Medical Center Username, Country, City, Phone Number, Email, Address, Representative Names, Representative&amp;nbsp;Phone Number, Representative&amp;nbsp;Email, Representative&amp;nbsp;Position, Password и Confirm Password" style="rounded=1;whiteSpace=wrap;html=1;" parent="1" vertex="1">
          <mxGeometry x="580" y="300" width="190" height="170" as="geometry" />
        </mxCell>
        <mxCell id="eYJfA2EcvsJr-afmFX8r-19" value="Medical Center" style="edgeLabel;html=1;align=center;verticalAlign=middle;resizable=0;points=[];" parent="1" vertex="1" connectable="0">
          <mxGeometry x="518" y="175" as="geometry">
            <mxPoint x="-6" y="-5" as="offset" />
          </mxGeometry>
        </mxCell>
        <mxCell id="X7iZQ6xbVrLrpFAx4A4I-1" style="edgeStyle=orthogonalEdgeStyle;rounded=0;orthogonalLoop=1;jettySize=auto;html=1;exitX=0.5;exitY=1;exitDx=0;exitDy=0;entryX=0.825;entryY=0;entryDx=0;entryDy=0;entryPerimeter=0;" edge="1" parent="1" source="eYJfA2EcvsJr-afmFX8r-16" target="eYJfA2EcvsJr-afmFX8r-4">
          <mxGeometry relative="1" as="geometry">
            <Array as="points">
              <mxPoint x="675" y="510" />
              <mxPoint x="439" y="510" />
            </Array>
          </mxGeometry>
        </mxCell>
        <mxCell id="eYJfA2EcvsJr-afmFX8r-27" value="" style="edgeStyle=orthogonalEdgeStyle;rounded=0;orthogonalLoop=1;jettySize=auto;html=1;exitX=0.5;exitY=1;exitDx=0;exitDy=0;" parent="1" source="eYJfA2EcvsJr-afmFX8r-4" target="eYJfA2EcvsJr-afmFX8r-28" edge="1">
          <mxGeometry relative="1" as="geometry">
            <mxPoint x="400" y="650" as="sourcePoint" />
          </mxGeometry>
        </mxCell>
        <mxCell id="eYJfA2EcvsJr-afmFX8r-28" value="Натискане на бутона Register" style="rounded=1;whiteSpace=wrap;html=1;" parent="1" vertex="1">
          <mxGeometry x="340" y="710" width="120" height="80" as="geometry" />
        </mxCell>
        <mxCell id="eYJfA2EcvsJr-afmFX8r-31" value="Прикачване на снимки от лична карта или шофьорска книжка" style="rounded=1;whiteSpace=wrap;html=1;" parent="1" vertex="1">
          <mxGeometry x="80" y="1030" width="120" height="120" as="geometry" />
        </mxCell>
        <mxCell id="eYJfA2EcvsJr-afmFX8r-43" value="" style="edgeStyle=orthogonalEdgeStyle;rounded=0;orthogonalLoop=1;jettySize=auto;html=1;" parent="1" source="eYJfA2EcvsJr-afmFX8r-33" target="eYJfA2EcvsJr-afmFX8r-40" edge="1">
          <mxGeometry relative="1" as="geometry" />
        </mxCell>
        <mxCell id="eYJfA2EcvsJr-afmFX8r-33" value="Прикачване на снимки от лична карта или шофьорска книжка, професионални документи и сертификати" style="rounded=1;whiteSpace=wrap;html=1;" parent="1" vertex="1">
          <mxGeometry x="340" y="1030" width="120" height="120" as="geometry" />
        </mxCell>
        <mxCell id="eYJfA2EcvsJr-afmFX8r-34" value="Прикачване на снимки от лиценза на медицинското заведение и всички правни документи" style="rounded=1;whiteSpace=wrap;html=1;" parent="1" vertex="1">
          <mxGeometry x="615" y="1030" width="120" height="120" as="geometry" />
        </mxCell>
        <mxCell id="eYJfA2EcvsJr-afmFX8r-50" value="" style="edgeStyle=orthogonalEdgeStyle;rounded=0;orthogonalLoop=1;jettySize=auto;html=1;" parent="1" source="eYJfA2EcvsJr-afmFX8r-40" edge="1">
          <mxGeometry relative="1" as="geometry">
            <mxPoint x="400" y="1350" as="targetPoint" />
          </mxGeometry>
        </mxCell>
        <mxCell id="eYJfA2EcvsJr-afmFX8r-40" value="Натискане на бутона Submit" style="rounded=1;whiteSpace=wrap;html=1;" parent="1" vertex="1">
          <mxGeometry x="340" y="1210" width="120" height="80" as="geometry" />
        </mxCell>
        <mxCell id="X7iZQ6xbVrLrpFAx4A4I-2" value="" style="endArrow=classic;html=1;rounded=0;exitX=0.5;exitY=1;exitDx=0;exitDy=0;entryX=0.5;entryY=0;entryDx=0;entryDy=0;" edge="1" parent="1" target="X7iZQ6xbVrLrpFAx4A4I-9">
          <mxGeometry x="1" y="292" width="50" height="50" relative="1" as="geometry">
            <mxPoint x="399.5000000000001" y="790.0000000000002" as="sourcePoint" />
            <mxPoint x="399.9999999999999" y="840.0000000000002" as="targetPoint" />
            <mxPoint x="-112" y="230" as="offset" />
          </mxGeometry>
        </mxCell>
        <mxCell id="X7iZQ6xbVrLrpFAx4A4I-5" value="" style="edgeStyle=orthogonalEdgeStyle;rounded=0;orthogonalLoop=1;jettySize=auto;html=1;" edge="1" parent="1" source="X7iZQ6xbVrLrpFAx4A4I-9">
          <mxGeometry relative="1" as="geometry">
            <mxPoint x="400" y="1030" as="targetPoint" />
          </mxGeometry>
        </mxCell>
        <mxCell id="X7iZQ6xbVrLrpFAx4A4I-6" value="" style="edgeStyle=orthogonalEdgeStyle;rounded=0;orthogonalLoop=1;jettySize=auto;html=1;entryX=0.5;entryY=0;entryDx=0;entryDy=0;" edge="1" parent="1" source="X7iZQ6xbVrLrpFAx4A4I-9">
          <mxGeometry relative="1" as="geometry">
            <mxPoint x="140" y="1030" as="targetPoint" />
          </mxGeometry>
        </mxCell>
        <mxCell id="X7iZQ6xbVrLrpFAx4A4I-7" value="User (default)" style="edgeLabel;html=1;align=center;verticalAlign=middle;resizable=0;points=[];" vertex="1" connectable="0" parent="X7iZQ6xbVrLrpFAx4A4I-6">
          <mxGeometry x="-0.8667" y="2" relative="1" as="geometry">
            <mxPoint x="-13" y="-17" as="offset" />
          </mxGeometry>
        </mxCell>
        <mxCell id="X7iZQ6xbVrLrpFAx4A4I-8" value="" style="edgeStyle=orthogonalEdgeStyle;rounded=0;orthogonalLoop=1;jettySize=auto;html=1;entryX=0.5;entryY=0;entryDx=0;entryDy=0;" edge="1" parent="1" source="X7iZQ6xbVrLrpFAx4A4I-9">
          <mxGeometry relative="1" as="geometry">
            <mxPoint x="675" y="1030" as="targetPoint" />
          </mxGeometry>
        </mxCell>
        <mxCell id="X7iZQ6xbVrLrpFAx4A4I-9" value="В зависимост от&lt;br&gt;типа на акаунта за регистрация" style="rhombus;whiteSpace=wrap;html=1;" vertex="1" parent="1">
          <mxGeometry x="325" y="840" width="150" height="150" as="geometry" />
        </mxCell>
        <mxCell id="X7iZQ6xbVrLrpFAx4A4I-10" value="Doctor" style="edgeLabel;html=1;align=center;verticalAlign=middle;resizable=0;points=[];" vertex="1" connectable="0" parent="1">
          <mxGeometry x="420" y="1000" as="geometry" />
        </mxCell>
        <mxCell id="X7iZQ6xbVrLrpFAx4A4I-11" value="Medical Center" style="edgeLabel;html=1;align=center;verticalAlign=middle;resizable=0;points=[];" vertex="1" connectable="0" parent="1">
          <mxGeometry x="518" y="905" as="geometry">
            <mxPoint x="-6" y="-5" as="offset" />
          </mxGeometry>
        </mxCell>
        <mxCell id="X7iZQ6xbVrLrpFAx4A4I-12" value="" style="edgeStyle=orthogonalEdgeStyle;rounded=0;orthogonalLoop=1;jettySize=auto;html=1;entryX=0.833;entryY=0;entryDx=0;entryDy=0;entryPerimeter=0;exitX=0.5;exitY=1;exitDx=0;exitDy=0;" edge="1" parent="1" source="eYJfA2EcvsJr-afmFX8r-34" target="eYJfA2EcvsJr-afmFX8r-40">
          <mxGeometry relative="1" as="geometry">
            <mxPoint x="410" y="1160" as="sourcePoint" />
            <mxPoint x="410" y="1220" as="targetPoint" />
          </mxGeometry>
        </mxCell>
        <mxCell id="X7iZQ6xbVrLrpFAx4A4I-13" value="" style="edgeStyle=orthogonalEdgeStyle;rounded=0;orthogonalLoop=1;jettySize=auto;html=1;entryX=0.158;entryY=-0.025;entryDx=0;entryDy=0;entryPerimeter=0;exitX=0.5;exitY=1;exitDx=0;exitDy=0;" edge="1" parent="1" source="eYJfA2EcvsJr-afmFX8r-31" target="eYJfA2EcvsJr-afmFX8r-40">
          <mxGeometry relative="1" as="geometry">
            <mxPoint x="685" y="1160" as="sourcePoint" />
            <mxPoint x="450" y="1220" as="targetPoint" />
          </mxGeometry>
        </mxCell>
      </root>
    </mxGraphModel>
  </diagram>
</mxfile>
